<svg viewBox="0 0 511.869 511.869" xmlns="http://www.w3.org/2000/svg">
  <g>
    <path d="m461.625 197.381c-21.974-25.608-51.353-43.107-83.625-50.447v-10.961c0-36.607-29.783-66.391-66.391-66.391h-96.435v37.07c0 
    17.337 6.687 33.136 17.608 44.973-42.549 11.539-81.497 34.402-112.546 66.623-7.044-29.095-33.289-50.774-64.518-50.774h-55.718v37.07c0 
    20.696 9.523 39.206 24.413 51.391-14.89 12.184-24.413 30.694-24.413 51.39v37.071h55.717c31.229 0 57.475-21.68 64.518-50.775 31.049 
    32.221 69.997 55.084 112.546 66.623-10.921 11.837-17.608 27.636-17.608 44.973v37.07h96.435c36.608 0 66.391-29.783 
    66.391-66.391v-10.961c32.272-7.339 61.651-24.838 83.625-50.447l50.245-58.554zm-431.625 7.163v-7.07h25.717c20.066 
    0 36.391 16.325 36.391 36.391v7.07h-25.717c-20.066-.001-36.391-16.326-36.391-36.391zm62.108 73.461c0 20.066-16.325 
    36.392-36.391 36.392h-25.717v-7.071c0-20.065 16.325-36.391 36.391-36.391h25.717zm189.456-134.962c-20.066 
    0-36.391-16.325-36.391-36.391v-7.07h66.435c20.066 0 36.391 16.325 36.391 36.391v7.07zm-148.158 120.505-6.533-7.613 
    6.533-7.613c41.051-47.84 100.75-75.278 163.79-75.278h40.686c-13.676 25.319-20.817 53.535-20.817 82.892s7.141 57.572 
    20.817 82.892h-40.686c-63.04-.002-122.739-27.441-163.79-75.28zm214.593 105.278v7.07c0 20.065-16.325 36.391-36.391 
    36.391h-66.435v-7.07c0-20.065 16.325-36.391 36.391-36.391zm90.858-73.873c-17.821 20.769-41.675 34.934-67.87 
    40.813-15.679-23.686-23.923-51.098-23.923-79.832s8.244-56.146 23.922-79.832c26.195 5.879 50.049 20.044 67.871 40.813l33.48 39.019z" />
  </g>
</svg>