<svg id="svg" version="1.1" xmlns="http://www.w3.org/2000/svg" xmlns:xlink="http://www.w3.org/1999/xlink" width="400" height="137.5" viewBox="0, 0, 400,137.5">
  <g id="svgg">
    <path id="path0" d="M279.500 11.268 C 276.475 11.682,273.288 12.307,271.917 12.756 C 271.550 12.876,270.987 13.026,270.667 13.090 C 270.346 13.153,270.008 13.263,269.917 13.333 C 269.825 13.404,269.487 13.517,269.167 13.584 C 268.846 13.651,268.433 13.788,268.250 13.888 C 268.067 13.989,267.856 14.053,267.781 14.032 C 267.707 14.011,267.445 14.099,267.198 14.229 C 266.952 14.358,266.412 14.592,266.000 14.749 C 265.587 14.906,265.137 15.101,265.000 15.183 C 264.862 15.265,264.452 15.459,264.088 15.616 C 263.724 15.772,263.092 16.076,262.685 16.293 C 262.278 16.509,261.339 16.999,260.598 17.382 C 259.856 17.764,259.190 18.172,259.117 18.288 C 259.043 18.405,258.919 18.500,258.840 18.500 C 258.694 18.500,257.088 19.502,256.715 19.825 C 256.605 19.921,256.474 20.000,256.425 20.000 C 256.353 20.000,255.444 20.641,254.583 21.298 C 253.911 21.812,252.891 22.626,252.658 22.833 C 252.504 22.971,251.915 23.496,251.348 24.000 C 249.890 25.296,247.000 28.228,247.000 28.411 C 247.000 28.446,246.794 28.687,246.542 28.947 C 246.290 29.206,245.896 29.674,245.667 29.987 C 245.438 30.299,244.969 30.897,244.625 31.316 C 244.281 31.735,244.000 32.129,244.000 32.192 C 244.000 32.255,241.394 32.336,238.208 32.372 C 231.463 32.447,231.731 32.388,230.373 34.083 C 229.743 34.870,229.510 36.751,229.847 38.325 L 230.028 39.167 244.018 39.167 L 258.009 39.167 258.777 40.792 C 259.200 41.685,259.760 42.840,260.023 43.357 C 260.285 43.874,260.500 44.387,260.500 44.498 C 260.500 44.608,260.642 44.898,260.815 45.141 L 261.130 45.583 246.804 45.540 C 231.563 45.494,231.897 45.477,232.238 46.251 C 232.359 46.526,232.589 47.200,232.749 47.750 C 232.909 48.300,233.144 48.996,233.270 49.297 C 233.397 49.598,233.500 49.980,233.500 50.145 C 233.500 50.309,233.556 50.499,233.625 50.566 C 233.694 50.632,233.866 51.076,234.008 51.552 L 234.265 52.417 249.296 52.459 L 264.327 52.502 264.432 52.918 C 264.489 53.146,264.598 53.333,264.674 53.333 C 264.749 53.333,264.860 53.502,264.919 53.708 C 264.979 53.915,265.272 54.571,265.571 55.167 C 265.871 55.762,266.217 56.512,266.341 56.833 C 266.465 57.154,266.775 57.773,267.029 58.208 L 267.491 59.000 251.996 59.000 L 236.500 59.000 236.501 59.375 C 236.502 59.581,236.614 59.965,236.751 60.227 C 236.888 60.490,237.000 60.810,237.000 60.938 C 237.000 61.066,237.070 61.301,237.156 61.461 C 237.242 61.620,237.501 62.163,237.731 62.667 C 238.468 64.278,239.504 65.170,241.119 65.584 C 241.991 65.808,247.196 65.832,285.845 65.794 L 329.583 65.750 330.500 65.337 C 331.367 64.947,331.602 64.760,332.430 63.798 C 333.060 63.067,333.683 61.698,334.214 59.875 L 334.469 59.000 318.985 59.000 C 310.468 59.000,303.500 58.969,303.500 58.931 C 303.500 58.893,303.715 58.424,303.978 57.889 C 304.241 57.354,304.934 55.925,305.520 54.712 L 306.583 52.508 321.625 52.504 C 334.943 52.500,336.667 52.471,336.667 52.248 C 336.667 52.109,336.735 51.865,336.819 51.706 C 336.904 51.547,337.095 50.967,337.246 50.417 C 337.397 49.867,337.628 49.170,337.760 48.869 C 337.892 48.568,338.000 48.193,338.001 48.036 C 338.002 47.879,338.106 47.550,338.234 47.305 C 338.362 47.061,338.518 46.554,338.581 46.180 L 338.696 45.500 324.348 45.500 C 315.036 45.500,310.000 45.442,310.000 45.336 C 310.000 45.245,310.218 44.739,310.484 44.211 C 310.751 43.682,311.209 42.725,311.502 42.083 C 311.796 41.442,312.227 40.523,312.462 40.042 L 312.888 39.167 326.866 39.167 C 340.022 39.167,340.851 39.150,340.962 38.875 C 341.295 38.051,341.091 34.930,340.666 34.345 C 339.241 32.385,339.404 32.426,332.709 32.363 L 327.001 32.310 326.292 31.380 C 325.902 30.869,325.452 30.311,325.292 30.142 C 325.131 29.972,325.000 29.793,325.000 29.743 C 325.000 29.657,324.184 28.719,323.375 27.876 C 323.169 27.661,323.000 27.460,323.000 27.430 C 323.000 27.210,319.505 23.871,318.046 22.697 C 317.669 22.393,317.147 21.958,316.888 21.729 C 316.629 21.501,316.210 21.204,315.958 21.069 C 315.706 20.935,315.500 20.747,315.500 20.653 C 315.500 20.558,315.430 20.524,315.344 20.577 C 315.258 20.630,315.126 20.578,315.052 20.462 C 314.874 20.183,313.895 19.500,313.673 19.500 C 313.578 19.500,313.500 19.425,313.500 19.333 C 313.500 19.242,313.415 19.167,313.312 19.167 C 313.208 19.167,312.758 18.904,312.311 18.583 C 311.865 18.262,311.456 18.000,311.404 18.000 C 311.351 18.000,310.770 17.683,310.112 17.297 C 309.455 16.910,308.617 16.453,308.250 16.281 C 305.088 14.802,304.396 14.500,304.167 14.500 C 304.058 14.500,303.769 14.397,303.526 14.271 C 303.282 14.145,302.671 13.914,302.167 13.757 C 301.662 13.600,301.100 13.412,300.917 13.340 C 300.620 13.223,299.726 12.978,296.917 12.245 C 295.295 11.822,294.162 11.637,290.333 11.171 C 288.417 10.938,281.458 11.000,279.500 11.268 M287.099 21.928 C 288.052 22.205,289.519 23.243,289.852 23.874 C 289.961 24.081,290.108 24.288,290.178 24.335 C 290.834 24.769,291.252 27.929,290.775 28.844 C 290.652 29.080,290.501 29.473,290.439 29.719 C 290.377 29.965,290.253 30.167,290.163 30.167 C 290.074 30.167,290.000 30.243,290.000 30.337 C 290.000 30.431,289.625 30.865,289.167 31.302 L 288.333 32.097 288.333 39.819 L 288.333 47.542 288.792 47.450 C 289.044 47.399,289.475 47.266,289.750 47.153 C 290.025 47.041,290.400 46.921,290.583 46.886 C 290.767 46.852,290.942 46.751,290.972 46.662 C 291.003 46.573,291.142 46.500,291.281 46.500 C 291.421 46.500,291.868 46.275,292.276 46.000 C 292.683 45.725,293.056 45.500,293.104 45.500 C 293.151 45.500,293.295 45.406,293.423 45.292 C 293.551 45.177,293.897 44.896,294.192 44.667 C 295.107 43.956,296.500 42.437,296.500 42.151 C 296.500 42.068,296.575 42.000,296.667 42.000 C 296.758 42.000,296.833 41.897,296.833 41.770 C 296.833 41.644,296.944 41.449,297.079 41.337 C 297.874 40.677,298.993 37.187,299.013 35.308 C 299.038 32.898,299.926 31.572,301.636 31.388 C 304.707 31.058,305.663 34.439,304.000 39.750 C 303.799 40.392,303.596 41.083,303.549 41.287 C 303.502 41.490,303.359 41.743,303.232 41.849 C 303.104 41.954,303.000 42.176,303.000 42.342 C 303.000 42.507,302.906 42.743,302.792 42.866 C 302.677 42.988,302.434 43.387,302.252 43.753 C 302.069 44.118,301.882 44.454,301.835 44.500 C 301.648 44.683,301.000 45.660,301.000 45.758 C 301.000 45.984,298.024 49.000,297.801 49.000 C 297.721 49.000,297.613 49.112,297.560 49.250 C 297.508 49.387,297.402 49.500,297.326 49.500 C 297.250 49.500,296.951 49.716,296.661 49.980 C 295.517 51.025,291.874 52.575,288.977 53.249 C 287.697 53.547,283.371 53.611,282.378 53.348 C 282.033 53.256,281.510 53.140,281.217 53.090 C 280.924 53.039,280.492 52.926,280.259 52.837 C 280.025 52.748,279.833 52.720,279.833 52.775 C 279.833 52.829,279.740 52.800,279.625 52.710 C 279.510 52.620,279.192 52.492,278.917 52.427 C 278.364 52.295,275.632 51.019,275.500 50.832 C 275.454 50.767,275.175 50.589,274.880 50.438 C 274.585 50.287,274.210 50.030,274.047 49.868 C 273.883 49.706,273.401 49.295,272.975 48.956 C 271.911 48.109,270.000 46.129,270.000 45.875 C 270.000 45.760,269.942 45.667,269.872 45.667 C 269.801 45.667,269.559 45.329,269.333 44.917 C 269.108 44.504,268.872 44.167,268.808 44.167 C 268.745 44.167,268.606 43.904,268.500 43.583 C 268.394 43.262,268.238 43.000,268.154 43.000 C 268.069 43.000,268.000 42.918,268.000 42.817 C 268.000 42.633,267.652 41.778,267.261 41.000 C 267.039 40.560,266.577 38.926,266.436 38.083 C 266.390 37.808,266.274 37.133,266.177 36.583 C 265.532 32.903,266.849 30.915,269.591 31.429 C 270.142 31.532,271.478 32.591,271.513 32.952 C 271.520 33.024,271.554 33.233,271.588 33.417 C 271.655 33.777,271.749 34.511,271.930 36.083 C 272.083 37.413,272.056 37.277,272.414 38.458 C 272.588 39.031,272.791 39.500,272.865 39.500 C 272.939 39.500,273.000 39.601,273.000 39.724 C 273.000 39.847,273.187 40.278,273.415 40.682 C 273.642 41.086,273.882 41.529,273.947 41.667 C 274.012 41.804,274.144 42.004,274.241 42.111 C 274.337 42.217,274.583 42.523,274.787 42.790 C 275.417 43.614,275.776 43.957,277.451 45.335 C 277.562 45.426,277.725 45.500,277.812 45.500 C 277.900 45.500,277.997 45.566,278.028 45.646 C 278.155 45.981,281.688 47.486,282.375 47.498 C 282.444 47.499,282.500 44.038,282.500 39.807 L 282.500 32.114 281.768 31.432 C 277.358 27.325,281.327 20.250,287.099 21.928 M163.333 70.415 L 163.333 78.496 157.542 78.540 L 151.750 78.583 151.705 82.708 L 151.661 86.833 157.497 86.833 L 163.333 86.833 163.342 98.042 C 163.346 104.206,163.380 109.550,163.416 109.917 C 163.453 110.283,163.523 111.158,163.571 111.860 C 163.737 114.241,165.073 118.753,165.835 119.500 C 165.882 119.546,166.069 119.873,166.252 120.227 C 166.434 120.580,166.677 120.907,166.792 120.953 C 166.906 120.998,167.000 121.110,167.000 121.202 C 167.000 121.371,169.089 123.500,169.256 123.500 C 169.306 123.500,169.504 123.646,169.696 123.825 C 171.817 125.801,179.151 127.121,183.583 126.325 C 184.133 126.226,184.996 126.081,185.500 126.001 C 187.762 125.646,190.833 124.744,190.833 124.434 C 190.833 124.315,190.763 123.999,190.678 123.733 C 190.592 123.467,190.484 122.912,190.438 122.500 C 190.356 121.769,190.240 121.144,189.741 118.750 C 189.608 118.108,189.480 117.358,189.458 117.083 C 189.411 116.513,189.046 116.417,188.300 116.781 C 188.052 116.901,187.654 117.000,187.414 117.000 C 187.174 117.000,186.846 117.070,186.685 117.157 C 184.177 118.499,177.361 118.083,175.208 116.457 C 172.605 114.490,172.500 113.812,172.500 98.973 L 172.500 86.833 180.750 86.833 L 189.000 86.833 189.000 82.667 L 189.000 78.500 180.750 78.500 L 172.500 78.500 172.500 70.518 C 172.500 63.393,172.472 62.525,172.236 62.434 C 172.091 62.379,170.029 62.333,167.653 62.333 L 163.333 62.333 163.333 70.415 M253.333 72.357 C 252.167 72.491,251.361 72.625,249.500 72.992 C 249.088 73.074,248.450 73.268,248.083 73.423 C 247.717 73.579,247.379 73.706,247.333 73.706 C 246.542 73.709,241.729 76.128,240.859 76.960 C 240.736 77.078,240.417 77.287,240.151 77.425 C 239.885 77.563,239.667 77.748,239.667 77.838 C 239.667 77.927,239.585 78.000,239.485 78.000 C 239.290 78.000,238.970 78.282,237.160 80.047 C 236.522 80.669,236.000 81.234,236.000 81.302 C 236.000 81.370,235.869 81.544,235.708 81.689 C 235.304 82.054,234.922 82.538,234.380 83.371 C 234.126 83.763,233.823 84.182,233.709 84.304 C 233.594 84.425,233.500 84.582,233.500 84.653 C 233.500 84.724,233.350 84.955,233.167 85.167 C 232.983 85.378,232.833 85.652,232.833 85.776 C 232.833 85.899,232.758 86.000,232.667 86.000 C 232.575 86.000,232.500 86.145,232.500 86.321 C 232.500 86.498,232.403 86.742,232.285 86.863 C 232.100 87.052,231.603 88.086,231.579 88.333 C 231.574 88.379,231.451 88.679,231.305 89.000 C 229.417 93.149,228.928 100.790,230.259 105.333 C 230.380 105.746,230.517 106.271,230.564 106.500 C 230.845 107.878,232.459 111.403,233.503 112.922 C 233.777 113.319,234.000 113.689,234.000 113.745 C 234.000 113.852,234.215 114.135,234.708 114.679 C 234.869 114.855,235.000 115.067,235.000 115.149 C 235.000 115.231,235.112 115.341,235.250 115.394 C 235.387 115.446,235.500 115.567,235.500 115.663 C 235.500 115.849,238.463 118.837,239.265 119.460 C 240.576 120.478,241.330 121.000,241.490 121.000 C 241.587 121.000,241.667 121.066,241.667 121.146 C 241.667 121.227,241.892 121.386,242.167 121.500 C 242.442 121.614,242.667 121.786,242.667 121.881 C 242.667 121.977,242.714 122.008,242.773 121.949 C 242.831 121.891,243.087 121.991,243.340 122.172 C 243.594 122.352,243.858 122.500,243.926 122.500 C 244.037 122.500,245.049 122.949,246.373 123.586 C 246.624 123.707,247.074 123.859,247.373 123.923 C 247.672 123.987,247.992 124.085,248.083 124.140 C 248.175 124.195,248.325 124.258,248.417 124.279 C 248.508 124.300,249.033 124.433,249.583 124.574 C 253.836 125.667,260.812 125.477,263.917 124.185 C 264.100 124.109,264.887 123.807,265.667 123.514 C 266.446 123.221,267.196 122.910,267.333 122.823 C 267.471 122.736,267.696 122.619,267.833 122.563 C 268.862 122.146,270.331 121.301,270.332 121.125 C 270.333 121.056,270.413 121.000,270.510 121.000 C 270.607 121.000,271.038 120.737,271.468 120.416 C 271.898 120.095,272.475 119.666,272.750 119.464 C 273.448 118.950,276.500 115.879,276.500 115.690 C 276.500 115.605,276.612 115.492,276.750 115.440 C 276.887 115.387,277.000 115.267,277.000 115.174 C 277.000 115.014,277.312 114.582,277.792 114.077 C 277.906 113.956,278.000 113.783,278.000 113.692 C 278.000 113.602,278.059 113.503,278.130 113.472 C 278.374 113.369,280.000 110.471,280.000 110.141 C 280.000 110.032,280.100 109.825,280.222 109.680 C 280.344 109.535,280.569 109.060,280.722 108.625 C 280.875 108.190,281.123 107.495,281.274 107.080 L 281.548 106.327 285.467 106.372 L 289.386 106.417 289.775 107.583 C 289.989 108.225,290.232 108.900,290.315 109.083 C 290.792 110.140,291.597 111.762,291.679 111.833 C 291.732 111.879,291.957 112.254,292.179 112.666 C 292.401 113.078,292.642 113.490,292.714 113.582 C 292.786 113.675,293.018 113.992,293.229 114.288 C 294.267 115.741,296.678 118.288,298.086 119.417 C 298.543 119.783,298.954 120.121,299.000 120.167 C 299.167 120.333,300.155 121.000,300.236 121.000 C 300.281 121.000,300.603 121.194,300.951 121.430 C 301.299 121.667,301.958 122.045,302.417 122.271 C 302.875 122.496,303.362 122.748,303.500 122.831 C 303.724 122.965,305.609 123.697,307.167 124.252 C 310.578 125.470,316.544 125.680,320.667 124.726 C 323.347 124.107,324.511 123.680,327.079 122.379 C 328.618 121.599,328.840 121.469,329.231 121.125 C 329.414 120.965,329.661 120.833,329.781 120.833 C 329.902 120.833,330.000 120.758,330.000 120.667 C 330.000 120.575,330.106 120.500,330.236 120.500 C 330.366 120.500,330.497 120.441,330.528 120.368 C 330.558 120.296,331.127 119.800,331.792 119.266 C 332.456 118.733,333.000 118.229,333.000 118.148 C 333.000 118.067,333.075 118.000,333.167 118.000 C 333.466 118.000,335.081 116.230,335.982 114.917 C 336.296 114.458,336.653 114.023,336.776 113.950 C 336.899 113.877,337.000 113.738,337.000 113.641 C 337.000 113.544,337.225 113.132,337.500 112.724 C 337.775 112.317,338.000 111.937,338.000 111.880 C 338.000 111.823,338.100 111.658,338.222 111.513 C 338.345 111.368,338.724 110.575,339.065 109.750 C 339.406 108.925,339.750 108.100,339.829 107.917 C 339.957 107.617,340.264 106.653,340.677 105.250 C 340.758 104.975,340.895 104.263,340.982 103.667 C 341.069 103.071,341.231 102.021,341.341 101.333 C 341.726 98.945,341.111 92.934,340.284 91.000 C 340.225 90.862,340.056 90.375,339.908 89.917 C 339.281 87.977,337.133 83.883,336.644 83.694 C 336.565 83.664,336.500 83.562,336.500 83.468 C 336.500 83.052,333.261 79.460,331.944 78.417 C 331.596 78.142,331.210 77.823,331.085 77.708 C 330.960 77.594,330.783 77.500,330.692 77.500 C 330.602 77.500,330.503 77.439,330.472 77.365 C 330.401 77.192,328.951 76.201,328.809 76.229 C 328.750 76.241,328.563 76.126,328.392 75.974 C 328.047 75.666,325.926 74.561,325.901 74.676 C 325.892 74.717,325.779 74.665,325.651 74.560 C 325.323 74.295,323.457 73.599,322.167 73.262 C 321.571 73.106,320.850 72.907,320.564 72.820 C 318.574 72.212,315.866 72.164,284.845 72.189 C 268.201 72.202,254.021 72.278,253.333 72.357 M32.292 77.339 C 31.856 77.412,31.144 77.515,30.708 77.568 C 29.721 77.686,28.103 78.074,27.333 78.375 C 25.863 78.952,24.130 79.823,23.961 80.071 C 23.894 80.169,23.837 80.191,23.836 80.119 C 23.834 80.048,23.327 80.372,22.708 80.841 L 21.583 81.693 21.536 80.097 L 21.488 78.500 16.994 78.500 L 12.500 78.500 12.500 101.836 L 12.500 125.172 16.958 125.128 L 21.417 125.083 21.459 108.947 L 21.502 92.811 22.059 92.081 C 22.963 90.898,23.526 90.304,24.666 89.333 C 25.258 88.829,25.825 88.342,25.926 88.250 C 28.004 86.369,34.424 85.234,37.333 86.233 C 39.772 87.071,42.191 88.863,43.000 90.432 C 43.137 90.699,43.295 90.954,43.350 91.000 C 43.405 91.046,43.660 91.608,43.917 92.250 C 44.930 94.777,44.890 94.111,44.991 110.250 L 45.083 125.083 49.583 125.083 L 54.083 125.083 54.080 110.083 C 54.078 98.777,54.026 94.837,53.870 94.084 C 53.734 93.426,53.720 93.065,53.831 93.028 C 53.924 92.998,54.000 92.900,54.000 92.813 C 54.000 92.612,54.619 91.730,55.167 91.150 C 55.396 90.908,55.821 90.437,56.111 90.104 C 56.401 89.772,56.677 89.500,56.724 89.500 C 56.771 89.500,57.070 89.255,57.387 88.955 C 58.212 88.177,61.089 86.609,62.000 86.441 C 62.229 86.399,62.642 86.268,62.917 86.151 C 63.775 85.785,68.868 85.845,70.000 86.235 C 70.950 86.562,72.756 87.431,73.127 87.740 C 74.044 88.504,75.000 89.467,75.000 89.625 C 75.000 89.731,75.097 89.877,75.216 89.950 C 75.616 90.196,76.801 92.737,77.183 94.167 C 77.561 95.580,77.562 95.618,77.623 110.375 L 77.685 125.167 82.259 125.167 L 86.833 125.167 86.828 111.875 C 86.823 95.790,86.736 94.345,85.550 90.417 C 85.135 89.042,83.892 86.293,83.641 86.194 C 83.564 86.164,83.500 86.001,83.500 85.833 C 83.500 85.665,83.444 85.503,83.375 85.472 C 83.306 85.442,83.025 85.084,82.750 84.678 C 82.066 83.667,78.901 80.500,78.575 80.500 C 78.543 80.500,78.188 80.278,77.787 80.007 C 73.287 76.971,64.913 76.296,59.167 78.507 C 58.663 78.701,58.009 78.932,57.714 79.019 C 57.420 79.107,57.134 79.251,57.080 79.340 C 57.025 79.428,56.840 79.500,56.669 79.500 C 56.497 79.500,56.255 79.603,56.129 79.728 C 56.004 79.853,55.736 80.008,55.534 80.073 C 55.332 80.137,55.167 80.259,55.167 80.345 C 55.167 80.430,55.089 80.500,54.993 80.500 C 54.831 80.500,53.852 81.127,53.667 81.350 C 53.621 81.405,53.497 81.480,53.392 81.517 C 53.124 81.610,51.750 82.781,50.903 83.637 C 50.228 84.319,49.500 84.435,49.500 83.859 C 49.500 83.705,47.379 81.500,47.231 81.500 C 47.174 81.500,46.884 81.294,46.587 81.042 C 45.649 80.245,45.430 80.091,44.749 79.750 C 44.383 79.567,44.058 79.360,44.028 79.292 C 43.997 79.223,43.890 79.167,43.789 79.167 C 43.688 79.167,43.300 79.025,42.928 78.851 C 40.045 77.509,35.293 76.834,32.292 77.339 M363.355 77.501 C 362.588 77.582,361.733 77.727,361.455 77.824 C 361.178 77.921,360.767 78.000,360.542 78.000 C 360.317 78.000,359.897 78.099,359.609 78.221 C 359.107 78.432,357.602 78.968,357.250 79.061 C 356.957 79.138,354.934 80.165,354.417 80.500 C 354.142 80.678,353.710 80.940,353.458 81.083 C 353.206 81.225,353.000 81.427,353.000 81.532 C 353.000 81.637,352.954 81.676,352.898 81.620 C 352.754 81.476,350.541 83.795,350.148 84.500 C 349.969 84.821,349.657 85.383,349.453 85.750 C 347.691 88.925,347.817 96.016,349.668 97.833 C 349.715 97.879,349.949 98.217,350.188 98.583 C 350.908 99.687,352.844 101.500,353.302 101.500 C 353.396 101.500,353.497 101.563,353.528 101.639 C 353.573 101.752,354.700 102.360,356.333 103.152 C 357.212 103.578,360.528 104.416,362.667 104.752 C 363.629 104.903,364.754 105.102,365.167 105.194 C 365.871 105.351,368.472 105.783,369.583 105.928 C 376.186 106.788,378.844 108.664,378.620 112.304 C 378.502 114.217,376.973 116.667,375.898 116.667 C 375.771 116.667,375.667 116.725,375.667 116.797 C 375.667 117.082,373.791 117.721,371.593 118.184 C 369.960 118.528,365.614 118.582,364.333 118.274 C 364.104 118.219,363.579 118.104,363.167 118.019 C 359.242 117.212,355.709 114.086,355.061 110.846 C 355.003 110.555,354.860 110.039,354.743 109.700 L 354.531 109.083 350.266 109.039 L 346.000 108.994 345.999 109.456 C 345.998 109.912,346.462 112.517,346.630 113.000 C 346.678 113.138,346.734 113.325,346.755 113.417 C 346.895 114.021,348.060 116.783,348.344 117.182 C 348.534 117.448,348.643 117.667,348.587 117.667 C 348.462 117.667,349.502 119.082,350.080 119.698 C 350.311 119.944,350.500 120.194,350.500 120.254 C 350.500 120.313,350.774 120.599,351.110 120.889 C 351.445 121.179,351.837 121.548,351.980 121.708 C 352.124 121.869,352.337 122.000,352.454 122.000 C 352.571 122.000,352.667 122.064,352.667 122.142 C 352.667 122.333,354.150 123.257,355.583 123.959 C 356.225 124.274,356.882 124.600,357.044 124.685 C 357.722 125.040,359.772 125.612,362.167 126.113 C 365.149 126.737,371.459 126.582,374.583 125.808 C 374.950 125.718,375.512 125.579,375.833 125.500 C 377.656 125.051,380.529 123.749,381.625 122.876 C 382.015 122.565,382.333 122.350,382.333 122.398 C 382.333 122.706,384.459 120.460,385.629 118.917 C 385.925 118.527,386.871 116.440,387.120 115.629 C 387.762 113.535,387.538 108.394,386.735 106.778 C 386.606 106.519,386.500 106.230,386.500 106.136 C 386.500 106.042,386.275 105.632,386.000 105.224 C 385.725 104.817,385.500 104.446,385.500 104.401 C 385.500 104.241,383.378 102.000,383.225 102.000 C 383.174 102.000,382.909 101.813,382.636 101.583 C 382.364 101.354,382.046 101.167,381.930 101.167 C 381.813 101.167,381.583 101.017,381.417 100.833 C 381.251 100.650,381.057 100.500,380.986 100.500 C 380.915 100.500,380.370 100.275,379.776 100.000 C 379.182 99.725,378.592 99.500,378.465 99.500 C 378.337 99.500,378.161 99.427,378.072 99.339 C 377.983 99.250,377.614 99.130,377.252 99.072 C 376.889 99.015,376.328 98.870,376.005 98.751 C 375.681 98.632,374.667 98.411,373.750 98.261 C 371.738 97.931,369.767 97.586,368.417 97.328 C 367.867 97.223,367.117 97.103,366.750 97.061 C 365.053 96.866,361.361 96.012,360.667 95.654 C 360.529 95.582,360.304 95.478,360.167 95.422 C 359.354 95.091,358.000 94.027,358.000 93.720 C 358.000 93.599,357.934 93.500,357.854 93.500 C 357.683 93.500,357.427 92.889,357.159 91.841 C 356.774 90.338,357.734 88.168,359.207 87.213 C 359.597 86.960,359.954 86.713,360.000 86.664 C 360.127 86.527,361.311 86.076,362.333 85.774 C 366.252 84.617,371.622 85.057,374.625 86.781 C 375.643 87.366,377.000 88.514,377.000 88.792 C 377.000 88.906,377.077 89.000,377.171 89.000 C 377.265 89.000,377.415 89.169,377.504 89.375 C 377.593 89.581,377.741 89.862,377.833 90.000 C 378.140 90.459,378.398 91.239,378.658 92.500 L 378.917 93.750 383.167 93.750 L 387.417 93.750 387.361 92.750 C 387.330 92.200,387.236 91.430,387.151 91.039 C 387.066 90.647,386.953 90.047,386.899 89.705 C 386.846 89.363,386.744 89.008,386.673 88.917 C 386.602 88.825,386.493 88.469,386.431 88.125 C 386.369 87.781,386.247 87.500,386.159 87.500 C 386.072 87.500,386.000 87.406,386.000 87.292 C 386.001 87.029,385.293 85.602,385.125 85.528 C 385.056 85.497,385.000 85.396,385.000 85.302 C 385.000 84.963,382.363 82.000,382.061 82.000 C 382.027 82.000,381.869 81.885,381.708 81.744 C 378.036 78.519,370.415 76.757,363.355 77.501 M117.000 77.784 C 115.432 78.089,111.172 79.456,110.820 79.767 C 110.675 79.895,110.466 80.000,110.354 80.000 C 110.242 80.000,109.740 80.262,109.239 80.583 C 108.737 80.904,108.253 81.167,108.163 81.167 C 108.074 81.167,108.000 81.242,108.000 81.333 C 108.000 81.425,107.925 81.500,107.833 81.500 C 107.742 81.500,107.522 81.631,107.345 81.792 C 106.738 82.343,106.514 82.500,106.335 82.500 C 106.237 82.500,106.113 82.612,106.060 82.750 C 106.008 82.887,105.901 83.000,105.824 83.000 C 105.676 83.000,104.041 84.600,102.917 85.845 C 102.060 86.794,100.869 88.486,100.519 89.250 C 100.435 89.433,100.172 89.868,99.933 90.216 C 99.695 90.564,99.500 90.927,99.500 91.023 C 99.500 91.120,99.392 91.398,99.260 91.641 C 98.025 93.915,97.067 98.169,97.012 101.619 C 96.987 103.231,97.087 104.209,97.573 107.083 C 97.720 107.954,98.128 109.385,98.499 110.333 C 98.697 110.837,98.920 111.438,98.995 111.667 C 99.866 114.328,103.974 119.703,106.382 121.333 C 106.721 121.563,106.998 121.806,106.999 121.875 C 106.999 121.944,107.106 122.000,107.236 122.000 C 107.366 122.000,107.497 122.056,107.528 122.125 C 107.606 122.301,108.464 122.864,109.247 123.253 C 109.613 123.435,110.012 123.677,110.134 123.792 C 110.257 123.906,110.496 124.000,110.665 124.000 C 110.834 124.000,110.997 124.056,111.028 124.125 C 111.092 124.269,112.831 125.000,113.109 125.000 C 113.212 125.000,113.510 125.112,113.773 125.249 C 114.035 125.386,114.414 125.498,114.614 125.499 C 114.814 125.500,115.189 125.582,115.447 125.682 C 118.144 126.725,125.912 126.445,128.905 125.196 C 129.265 125.045,129.640 124.918,129.738 124.913 C 130.150 124.890,133.421 123.279,134.509 122.562 C 134.979 122.253,135.393 122.000,135.431 122.000 C 135.469 122.000,135.500 122.714,135.500 123.586 L 135.500 125.172 140.042 125.128 L 144.583 125.083 144.583 101.833 L 144.583 78.583 140.271 78.539 C 135.146 78.486,135.500 78.344,135.500 80.444 C 135.500 81.685,135.456 81.975,135.292 81.832 C 134.804 81.408,133.301 80.513,132.233 80.012 C 129.570 78.759,128.616 78.438,125.917 77.884 C 124.215 77.535,118.605 77.472,117.000 77.784 M221.583 77.846 C 220.667 78.018,219.744 78.236,219.534 78.329 C 219.323 78.423,219.035 78.500,218.892 78.500 C 218.750 78.500,218.397 78.607,218.109 78.738 C 217.820 78.869,217.208 79.135,216.750 79.330 C 215.373 79.916,215.132 80.042,213.917 80.815 C 212.729 81.570,211.651 82.385,210.751 83.208 C 210.007 83.887,210.000 83.868,210.000 81.184 C 210.000 78.179,210.579 78.500,205.153 78.500 L 200.833 78.500 200.833 101.833 L 200.833 125.167 205.417 125.167 L 210.000 125.167 210.000 110.232 L 210.000 95.298 210.474 94.691 C 210.735 94.357,211.016 93.959,211.099 93.807 C 211.730 92.655,214.463 90.193,216.564 88.886 C 217.584 88.251,220.335 87.082,221.167 86.929 C 221.396 86.887,221.835 86.776,222.143 86.683 C 222.451 86.589,223.464 86.462,224.393 86.399 C 225.323 86.337,226.196 86.265,226.333 86.239 C 226.471 86.213,226.677 86.186,226.792 86.179 C 226.953 86.170,227.000 85.182,227.000 81.833 L 227.000 77.500 225.125 77.516 C 224.067 77.526,222.524 77.669,221.583 77.846 M260.083 81.747 C 262.015 82.312,265.833 84.048,265.833 84.361 C 265.833 84.437,265.948 84.500,266.089 84.500 C 266.229 84.500,266.387 84.612,266.440 84.750 C 266.492 84.887,266.608 85.000,266.696 85.000 C 266.873 85.000,266.911 85.032,268.219 86.292 C 268.719 86.773,269.081 87.169,269.022 87.172 C 268.964 87.175,269.033 87.269,269.175 87.380 C 269.594 87.709,271.167 89.863,271.167 90.108 C 271.167 90.232,271.242 90.333,271.333 90.333 C 271.425 90.333,271.500 90.453,271.500 90.599 C 271.500 90.746,271.668 91.102,271.874 91.391 C 272.080 91.680,272.223 91.917,272.192 91.917 C 272.161 91.917,272.208 92.104,272.296 92.333 C 272.385 92.563,272.573 93.162,272.714 93.667 C 272.856 94.171,273.060 94.883,273.168 95.250 C 273.731 97.166,273.377 103.357,272.663 104.071 C 272.573 104.160,272.500 104.366,272.500 104.528 C 272.500 104.690,272.362 105.107,272.193 105.453 C 272.024 105.800,271.743 106.401,271.568 106.790 C 271.393 107.178,271.189 107.497,271.115 107.498 C 271.041 107.499,271.020 107.565,271.070 107.644 C 271.119 107.724,271.011 107.923,270.829 108.087 C 270.648 108.251,270.500 108.488,270.500 108.614 C 270.500 108.741,270.387 108.887,270.250 108.940 C 270.112 108.992,270.000 109.136,270.000 109.260 C 270.000 109.383,269.869 109.560,269.708 109.653 C 269.548 109.747,269.477 109.825,269.550 109.828 C 269.938 109.843,265.887 113.500,265.483 113.500 C 265.414 113.500,265.258 113.594,265.137 113.708 C 264.879 113.952,263.042 114.855,262.083 115.210 C 256.918 117.119,250.353 116.360,246.386 113.396 C 246.094 113.178,245.819 113.000,245.775 113.000 C 245.406 113.000,242.000 109.542,242.000 109.167 C 242.000 109.075,241.923 109.000,241.828 109.000 C 241.734 109.000,241.608 108.869,241.549 108.708 C 241.490 108.548,241.281 108.192,241.084 107.917 C 240.888 107.642,240.552 107.042,240.337 106.583 C 240.123 106.125,239.885 105.621,239.808 105.463 C 239.591 105.015,239.035 103.305,238.926 102.750 C 238.872 102.475,238.781 102.063,238.724 101.833 C 238.460 100.770,238.469 96.942,238.738 95.769 C 239.072 94.311,239.479 92.921,239.776 92.225 C 239.899 91.936,240.000 91.626,240.000 91.537 C 240.000 91.447,240.112 91.281,240.250 91.167 C 240.387 91.053,240.500 90.818,240.500 90.646 C 240.500 90.474,240.575 90.333,240.667 90.333 C 240.758 90.333,240.833 90.234,240.833 90.113 C 240.833 89.863,242.597 87.447,242.841 87.361 C 242.929 87.331,243.000 87.206,243.000 87.083 C 243.000 86.961,243.070 86.836,243.155 86.806 C 243.240 86.775,243.721 86.356,244.224 85.875 C 244.727 85.394,245.182 85.000,245.236 85.000 C 245.290 85.000,245.478 84.869,245.655 84.708 C 246.220 84.195,247.068 83.674,248.208 83.137 C 248.369 83.062,248.649 82.925,248.831 82.833 C 251.575 81.452,257.214 80.907,260.083 81.747 M319.000 81.758 C 321.003 82.359,322.441 82.962,324.091 83.891 C 324.550 84.149,325.903 85.216,325.972 85.374 C 326.003 85.443,326.093 85.500,326.173 85.500 C 326.370 85.500,328.000 87.143,328.000 87.341 C 328.000 87.429,328.071 87.500,328.159 87.500 C 328.351 87.500,329.549 89.183,329.940 90.000 C 330.005 90.138,330.111 90.287,330.174 90.333 C 330.338 90.452,331.095 92.129,331.340 92.917 C 331.454 93.283,331.648 93.863,331.771 94.205 C 332.812 97.101,332.240 104.222,330.830 105.921 C 330.733 106.037,330.621 106.304,330.581 106.512 C 330.541 106.721,330.436 106.937,330.348 106.991 C 330.260 107.046,330.105 107.276,330.003 107.503 C 329.697 108.190,329.405 108.648,328.941 109.168 C 328.699 109.441,328.500 109.712,328.500 109.771 C 328.500 109.973,325.296 113.000,325.082 113.000 C 324.965 113.000,324.832 113.094,324.787 113.208 C 324.743 113.323,323.966 113.780,323.061 114.224 C 322.157 114.669,321.298 115.093,321.152 115.167 C 320.309 115.598,317.649 116.142,315.710 116.279 C 313.416 116.442,309.052 115.617,307.682 114.761 C 307.554 114.681,306.954 114.358,306.349 114.043 C 305.745 113.729,305.132 113.366,304.987 113.236 C 304.842 113.106,304.681 113.000,304.628 113.000 C 304.344 113.000,302.228 110.982,301.286 109.814 C 300.085 108.322,299.612 107.528,298.720 105.500 C 298.579 105.179,298.401 104.794,298.326 104.645 C 297.667 103.340,297.237 99.158,297.503 96.635 C 297.636 95.370,297.689 95.139,298.261 93.333 C 298.545 92.434,299.792 89.664,299.987 89.500 C 300.183 89.334,301.000 88.186,301.000 88.076 C 301.000 87.739,304.641 84.429,305.417 84.060 C 305.692 83.930,306.142 83.676,306.417 83.497 C 306.692 83.317,307.029 83.126,307.167 83.071 C 307.304 83.016,307.792 82.799,308.250 82.589 C 309.195 82.156,309.513 82.052,310.319 81.915 C 310.632 81.862,310.970 81.767,311.069 81.703 C 311.745 81.269,317.505 81.309,319.000 81.758 M124.417 85.994 C 125.795 86.158,128.529 86.962,128.872 87.305 C 128.979 87.412,129.197 87.500,129.357 87.500 C 129.516 87.500,129.692 87.573,129.747 87.662 C 129.802 87.751,130.097 87.943,130.401 88.087 C 130.706 88.232,131.114 88.498,131.308 88.678 C 131.502 88.859,131.699 89.005,131.747 89.003 C 131.939 88.996,134.531 91.474,135.167 92.273 L 135.583 92.797 135.500 102.023 C 135.420 110.934,135.405 111.264,135.083 111.667 C 134.649 112.210,132.349 114.500,132.238 114.500 C 132.130 114.500,131.726 114.829,131.368 115.208 C 131.216 115.369,131.006 115.500,130.900 115.500 C 130.794 115.500,130.614 115.612,130.500 115.750 C 130.386 115.888,130.152 116.000,129.980 116.000 C 129.807 116.000,129.667 116.074,129.667 116.163 C 129.667 116.253,129.460 116.376,129.208 116.436 C 128.956 116.497,128.669 116.610,128.569 116.687 C 126.448 118.345,117.721 118.337,115.585 116.677 C 115.492 116.605,115.210 116.497,114.958 116.436 C 114.706 116.376,114.500 116.253,114.500 116.163 C 114.500 116.074,114.396 116.000,114.268 116.000 C 113.406 116.000,109.729 112.460,108.750 110.687 C 108.567 110.355,108.378 110.046,108.331 110.000 C 106.937 108.650,105.849 102.665,106.407 99.417 C 106.845 96.870,108.323 93.000,108.859 93.000 C 108.936 93.000,109.000 92.914,109.000 92.809 C 109.000 92.609,109.836 91.533,110.833 90.449 C 111.487 89.738,113.718 88.000,113.976 88.000 C 114.068 88.000,114.242 87.906,114.363 87.792 C 114.982 87.207,118.301 86.053,119.667 85.949 C 121.284 85.825,123.144 85.843,124.417 85.994 " stroke="none" fill="#ececf3" fill-rule="evenodd"></path>
    <path id="path1" d="M12.414 101.833 C 12.414 114.621,12.434 119.852,12.458 113.458 C 12.482 107.065,12.482 96.602,12.458 90.208 C 12.434 83.815,12.414 89.046,12.414 101.833 M253.485 83.418 C 252.697 83.533,251.896 83.711,251.704 83.813 C 251.512 83.916,251.239 84.000,251.098 84.000 C 248.807 84.000,243.862 88.268,242.119 91.750 C 239.129 97.725,240.120 102.572,244.333 102.576 C 246.702 102.578,247.882 101.487,248.164 99.035 C 248.740 94.018,251.697 91.000,256.037 91.000 C 259.702 91.000,261.304 86.409,258.443 84.106 C 257.290 83.178,256.182 83.024,253.485 83.418 M312.500 83.406 C 310.959 83.620,308.853 84.295,307.667 84.954 C 306.030 85.863,305.500 86.205,305.500 86.349 C 305.500 86.432,305.429 86.500,305.341 86.500 C 305.042 86.500,303.457 88.082,302.503 89.333 C 299.351 93.465,298.330 99.449,300.410 101.602 C 302.573 103.840,306.980 102.267,306.999 99.250 C 307.026 94.777,310.623 91.000,314.856 91.000 C 318.072 91.000,320.039 86.992,317.936 84.724 C 317.696 84.465,317.500 84.196,317.500 84.127 C 317.500 84.057,317.387 84.000,317.250 84.000 C 317.112 84.000,317.000 83.930,317.000 83.845 C 317.000 83.304,314.786 83.088,312.500 83.406 " stroke="none" fill="#94c4e4" fill-rule="evenodd"></path>
    <path id="path2" d="" stroke="none" fill="#f0d8ec" fill-rule="evenodd"></path>
    <path id="path3" d="" stroke="none" fill="#f0d8ec" fill-rule="evenodd"></path>
    <path id="path4" d="" stroke="none" fill="#f0d8ec" fill-rule="evenodd"></path>
    <path id="path5" d="" stroke="none" fill="#f0d8ec" fill-rule="evenodd"></path>
    <path id="path6" d="" stroke="none" fill="#f0d8ec" fill-rule="evenodd"></path>
    <path id="path7" d="" stroke="none" fill="#f0d8ec" fill-rule="evenodd"></path>
    <path id="path8" d="" stroke="none" fill="#f0d8ec" fill-rule="evenodd"></path>
  </g>
</svg>