<svg width="39" height="40" viewBox="0 0 39 40" fill="none" xmlns="http://www.w3.org/2000/svg">
<path d="M37.2614 16.1372C36.528 16.0246 35.775 15.9165 35.0236 15.816C34.9326 15.8039 34.8587 15.7406 34.8357 15.6548C34.4889 14.3639 33.9856 13.1183 33.34 11.9525C33.2965 11.8742 33.3047 11.7755 33.3608 11.7007C33.8229 11.0847 34.281 10.462 34.7224 9.84994C35.3184 9.02353 35.2318 7.85087 34.5213 7.12205L32.0559 4.59345C31.3453 3.8647 30.2021 3.77594 29.3962 4.38735C28.8007 4.83907 28.1936 5.30892 27.5917 5.78384C27.519 5.84134 27.4225 5.8497 27.3462 5.80525C26.2097 5.14306 24.9952 4.62688 23.7365 4.2711C23.6528 4.24759 23.591 4.1718 23.5791 4.07821C23.4809 3.30633 23.3757 2.53415 23.2661 1.78321C23.1178 0.766564 22.2482 0 21.2433 0H17.7567C16.7517 0 15.8821 0.766564 15.734 1.78313C15.6244 2.53422 15.5191 3.30633 15.421 4.07837C15.409 4.17188 15.3473 4.24751 15.2635 4.2711C14.0048 4.62704 12.7903 5.14313 11.6539 5.80525C11.5775 5.8497 11.4811 5.8411 11.4083 5.78384C10.8064 5.30892 10.1993 4.83907 9.60377 4.38727C8.79779 3.77594 7.65453 3.86485 6.94407 4.59352L4.47869 7.12212C3.76808 7.85103 3.68162 9.02377 4.27774 9.8501C4.71985 10.4631 5.17795 11.0856 5.63932 11.7007C5.69531 11.7753 5.70353 11.8742 5.66019 11.9525C5.0144 13.1185 4.51121 14.3642 4.1644 15.6548C4.14147 15.7405 4.06759 15.8039 3.97648 15.8161C3.22543 15.9167 2.47254 16.0246 1.7387 16.1373C0.7474 16.2892 0 17.1813 0 18.2119V21.788C0 22.8187 0.7474 23.7107 1.73855 23.8627C2.47239 23.9754 3.22535 24.0833 3.97641 24.1838C4.06759 24.1961 4.14132 24.2593 4.16432 24.3452C4.51114 25.6359 5.0144 26.8815 5.66011 28.0475C5.70346 28.1258 5.69523 28.2247 5.63924 28.2993C5.17673 28.9158 4.71863 29.5385 4.27767 30.15C3.68162 30.9764 3.768 32.1491 4.47861 32.878L6.94399 35.4066C7.65468 36.1354 8.7981 36.2241 9.60377 35.6126C10.1992 35.1609 10.8063 34.6911 11.4082 34.2162C11.481 34.1587 11.5774 34.1504 11.6537 34.1948C12.7902 34.8569 14.0046 35.373 15.2634 35.7289C15.3471 35.7525 15.4089 35.8282 15.4208 35.9216C15.519 36.6935 15.6243 37.4658 15.7339 38.2166C15.8821 39.2333 16.7517 39.9998 17.7567 39.9998H21.2433C22.2482 39.9998 23.1179 39.2333 23.2661 38.2165C23.3757 37.4647 23.4809 36.6925 23.579 35.9215C23.591 35.828 23.6527 35.7523 23.7364 35.7286C24.9951 35.3726 26.2097 34.8565 27.3461 34.1944C27.4225 34.1501 27.5188 34.1586 27.5916 34.2158C28.1935 34.6908 28.8006 35.1606 29.3961 35.6123C30.2018 36.2237 31.3452 36.1351 32.0559 35.4062L34.5212 32.8776C35.2318 32.1488 35.3183 30.9762 34.7223 30.1497C34.2808 29.5379 33.8227 28.9151 33.3606 28.299C33.3046 28.2244 33.2964 28.1255 33.3398 28.0472C33.9855 26.8812 34.4887 25.6356 34.8355 24.345C34.8587 24.259 34.9324 24.1957 35.0236 24.1835C35.7749 24.083 36.5278 23.975 37.2614 23.8624C38.2526 23.7104 39 22.8185 39 21.7878V18.2117C39 17.1812 38.2526 16.2892 37.2614 16.1372ZM37.1789 21.7882C37.1789 21.9014 37.0986 21.9991 36.992 22.0156C36.2698 22.1264 35.5283 22.2327 34.7882 22.3318C33.9688 22.4414 33.2983 23.0368 33.08 23.849C32.7731 24.9911 32.3278 26.0933 31.7565 27.125C31.3503 27.8585 31.4134 28.7665 31.9174 29.4384C32.3726 30.0453 32.8237 30.6585 33.2583 31.261C33.3224 31.3498 33.3118 31.4773 33.2337 31.5574L30.7682 34.086C30.6901 34.1662 30.5659 34.1769 30.4793 34.1113C29.893 33.6664 29.295 33.2037 28.7022 32.7359C28.0472 32.219 27.162 32.1542 26.4469 32.5708C25.441 33.1567 24.3663 33.6135 23.2527 33.9283C22.4609 34.1522 21.8803 34.8398 21.7733 35.6804C21.6768 36.4399 21.5731 37.2004 21.465 37.9407C21.4491 38.05 21.3538 38.1323 21.2433 38.1323H17.7567C17.6462 38.1323 17.5509 38.05 17.535 37.9406C17.4272 37.2012 17.3233 36.4407 17.2267 35.6805C17.1198 34.8399 16.5391 34.1523 15.7473 33.9284C14.6336 33.6136 13.5589 33.1568 12.5532 32.5708C12.2395 32.3882 11.8932 32.298 11.548 32.298C11.1059 32.298 10.6655 32.4457 10.2978 32.7361C9.705 33.2038 9.10705 33.6665 8.52075 34.1115C8.43407 34.177 8.30999 34.1663 8.23191 34.0862L5.76645 31.5576C5.6883 31.4774 5.67763 31.3501 5.74177 31.2612C6.17603 30.6591 6.62712 30.0459 7.0827 29.4386C7.58658 28.7667 7.6498 27.8588 7.24373 27.1254C6.67221 26.0934 6.22699 24.9912 5.92009 23.8493C5.70186 23.0372 5.03139 22.4417 4.21193 22.3321C3.47215 22.2331 2.73061 22.1266 2.00797 22.0158C1.90141 21.9994 1.82112 21.9017 1.82112 21.7884V18.2123C1.82112 18.099 1.90141 18.0013 2.00797 17.9849C2.73061 17.874 3.47207 17.7676 4.21178 17.6686C5.03131 17.5591 5.70178 16.9635 5.92001 16.1514C6.22676 15.0096 6.67214 13.9073 7.24365 12.8753C7.6498 12.1418 7.58658 11.2339 7.0827 10.5621C6.62834 9.95619 6.17717 9.34306 5.74177 8.73947C5.67779 8.65064 5.68837 8.52314 5.76645 8.44314L8.23176 5.91446C8.30976 5.83431 8.434 5.8236 8.5206 5.88915C9.1069 6.334 9.70485 6.79673 10.2977 7.26454C10.9528 7.78126 11.838 7.84619 12.5532 7.42955C13.5589 6.84361 14.6336 6.38681 15.7473 6.07196C16.5391 5.84814 17.1198 5.16048 17.2267 4.31993C17.3234 3.55969 17.4271 2.79922 17.535 2.05954C17.5509 1.95039 17.6463 1.86797 17.7568 1.86797H21.2434C21.3538 1.86797 21.4492 1.95032 21.4651 2.05961C21.5731 2.79907 21.6767 3.55946 21.7735 4.31993C21.8803 5.16048 22.4611 5.84814 23.2528 6.07196C24.3664 6.38681 25.4411 6.84361 26.447 7.42955C27.1621 7.84595 28.0474 7.78126 28.7023 7.26439C29.2952 6.79665 29.8931 6.33392 30.4793 5.88907C30.5659 5.82329 30.6902 5.83415 30.7683 5.91439L33.2337 8.44298C33.3119 8.52314 33.3224 8.65056 33.2584 8.73931C32.8238 9.34197 32.3727 9.9551 31.9174 10.562C31.4136 11.2339 31.3503 12.1419 31.7566 12.8754C32.3279 13.9071 32.7732 15.0092 33.0802 16.1514C33.2984 16.9635 33.9691 17.5589 34.7883 17.6685C35.5284 17.7675 36.2699 17.8739 36.9923 17.9847C37.0988 18.0011 37.1791 18.0989 37.1791 18.2121V21.7882H37.1789Z" fill="black"/>
<path d="M19.5001 11.3177C14.8323 11.3177 11.0348 15.2125 11.0348 20C11.0348 24.7875 14.8323 28.6824 19.5001 28.6824C24.1679 28.6824 27.9654 24.7875 27.9654 20C27.9654 15.2125 24.1679 11.3177 19.5001 11.3177ZM19.5001 26.8145C15.8364 26.8145 12.856 23.7575 12.856 20C12.856 16.2424 15.8366 13.1856 19.5001 13.1856C23.1637 13.1856 26.1442 16.2425 26.1442 20C26.1442 23.7575 23.1637 26.8145 19.5001 26.8145Z" fill="black"/>
</svg>
