<svg width="46" height="46" viewBox="0 0 46 46" fill="none" xmlns="http://www.w3.org/2000/svg">
<g clip-path="url(#clip0)">
<path d="M45.9999 23.0001C45.9999 22.0279 45.4598 21.1537 44.5899 20.7182L41.1649 19.0057L44.5899 17.2933C44.59 17.2932 44.5903 17.2931 44.5903 17.2931C45.4599 16.8578 46.0001 15.9836 46.0001 15.0114C46.0001 14.0393 45.4599 13.1651 44.5901 12.7296L25.2541 3.0619C23.8425 2.35671 22.1572 2.35671 20.7453 3.06199L1.40974 12.7301C0.540229 13.1652 1.79217e-07 14.0393 1.79217e-07 15.0115C1.79217e-07 15.9837 0.54014 16.8578 1.41001 17.2933L4.83493 19.0057L1.40956 20.7184C0.54014 21.1537 1.79217e-07 22.0279 1.79217e-07 23.0001C1.79217e-07 23.9723 0.54014 24.8465 1.41001 25.2818L4.83493 26.9943L1.41027 28.7067C0.540858 29.1411 0.000359553 30.015 1.79217e-07 30.9873C-0.000359195 31.9601 0.53978 32.8348 1.41001 33.2704L20.7457 42.9383C21.4515 43.2909 22.2255 43.4671 22.9999 43.4671C23.7742 43.4671 24.5486 43.2907 25.2545 42.9382L44.5902 33.2703C45.46 32.835 46.0003 31.9602 45.9999 30.9874C45.9995 30.0151 45.459 29.1412 44.5899 28.707L41.1649 26.9945L44.5903 25.2818C45.4598 24.8465 45.9999 23.9723 45.9999 23.0001ZM2.35615 15.402C2.146 15.2968 2.11474 15.1122 2.11474 15.0115C2.11474 14.9109 2.14618 14.7263 2.35579 14.6214L21.6908 4.95382C22.1008 4.74898 22.5505 4.64674 23.0001 4.64674C23.4496 4.64674 23.8992 4.74907 24.3089 4.95373L43.6438 14.6212C43.8538 14.7263 43.8853 14.9109 43.8853 15.0115C43.8853 15.1122 43.854 15.2968 43.6438 15.402L24.3092 25.0693C23.4893 25.4788 22.5106 25.4788 21.6912 25.0694L2.35615 15.402ZM43.6445 30.5985C43.8538 30.7031 43.8852 30.8874 43.8852 30.9881C43.8853 31.089 43.8539 31.2739 43.6441 31.3789L24.3091 41.0464C23.4892 41.4559 22.5105 41.456 21.6911 41.0465L2.35615 31.379C2.146 31.2738 2.11465 31.0889 2.11474 30.988C2.11474 30.8874 2.146 30.7031 2.35579 30.5983L7.19943 28.1765L20.7457 34.9495C21.4515 35.3022 22.2255 35.4784 22.9998 35.4784C23.7741 35.4784 24.5485 35.302 25.2544 34.9495L38.8003 28.1765L43.6445 30.5985ZM43.644 23.3904L24.3091 33.0579C23.4892 33.4674 22.5105 33.4675 21.6911 33.058L2.35615 23.3905C2.146 23.2854 2.11474 23.1008 2.11474 23.0002C2.11474 22.8994 2.146 22.7149 2.35579 22.6099L7.19943 20.1881L20.7457 26.9611C21.4514 27.3137 22.2256 27.4899 22.9998 27.4899C23.774 27.4899 24.5484 27.3136 25.2543 26.9609L38.8004 20.188L43.6437 22.6096C43.8538 22.7148 43.8851 22.8994 43.8851 23.0001C43.8852 23.1007 43.8538 23.2853 43.644 23.3904Z" fill="black"/>
</g>
<defs>
<clipPath id="clip0">
<rect width="46" height="46" fill="white"/>
</clipPath>
</defs>
</svg>
