<svg width="50" height="50" viewBox="0 0 50 50" fill="none" xmlns="http://www.w3.org/2000/svg">
<g clip-path="url(#clip0)">
<path d="M7.07362 9.47792C5.47851 9.47792 4.18066 10.7758 4.18066 12.3709C4.18066 13.9661 5.47851 15.2639 7.07362 15.2639C8.66873 15.2639 9.96658 13.9661 9.96658 12.3709C9.96658 10.7758 8.66873 9.47792 7.07362 9.47792ZM7.07362 13.1827C6.62597 13.1827 6.26181 12.8184 6.26181 12.3708C6.26181 11.9231 6.62597 11.559 7.07362 11.559C7.52128 11.559 7.88543 11.923 7.88543 12.3708C7.88543 12.8185 7.52118 13.1827 7.07362 13.1827Z" fill="black"/>
<path d="M48.0285 18.322V10.9746C48.0285 9.55227 46.8709 8.39358 45.4472 8.39192L12.9119 8.37561C12.6577 8.00589 12.3671 7.65696 12.0402 7.3346C10.682 5.99505 8.88407 5.27006 6.97353 5.29828C3.15109 5.35121 0.0228744 8.50491 0.000120575 12.3281C-0.00652003 13.4611 0.261252 14.5896 0.774532 15.5918C0.784688 15.6117 2.46681 18.4322 2.46681 18.4322V42.0989C2.46681 43.5224 3.62501 44.6807 5.04805 44.6807L45.4447 44.7025C46.8694 44.7025 48.0285 43.5438 48.0285 42.1197V28.4495C48.0285 28.4495 49.2153 26.4591 49.2254 26.4391C49.7321 25.45 49.9999 24.3362 49.9999 23.2182C49.9998 21.3756 49.3001 19.6453 48.0285 18.322ZM40.9134 10.4708L35.8892 15.495L30.86 10.4657L40.9134 10.4708ZM34.5646 16.8195L25.8083 25.5758L22.6068 22.3743C22.6066 22.3741 22.6065 22.374 22.6063 22.3738C22.6061 22.3736 22.606 22.3735 22.6058 22.3733L20.2042 19.9718L28.9606 11.2155L34.5646 16.8195ZM17.1276 29.1773L21.9442 24.3607L28.1323 30.5489L23.3158 35.3655L17.1276 29.1773ZM18.3016 33.0001L12.8986 38.403L8.56933 34.0737L13.9722 28.6707L18.3016 33.0001ZM13.3722 15.5918C13.8789 14.6026 14.1467 13.4889 14.1467 12.3709C14.1467 11.7142 14.0561 11.0723 13.8844 10.4572L27.0634 10.4639L18.8799 18.6473L15.9496 15.717C15.5838 15.3514 14.9909 15.3514 14.6251 15.717C14.2593 16.0827 14.2593 16.6758 14.6251 17.0416L20.6198 23.0363L15.8032 27.8529L11.9022 23.9519C11.5365 23.5863 10.9435 23.5863 10.5777 23.9519C10.212 24.3177 10.212 24.9107 10.5777 25.2765L12.6476 27.3464L4.54805 35.4459V21.9203L5.28711 23.159C5.66611 23.7941 6.33389 24.1733 7.07343 24.1733C7.81298 24.1733 8.48075 23.7941 8.85975 23.159C8.85966 23.159 13.3621 15.6117 13.3722 15.5918ZM2.61232 14.6144C2.25519 13.9063 2.07648 13.1415 2.08126 12.3405C2.09728 9.64231 4.30479 7.41663 7.00215 7.37923C8.35146 7.36263 9.6201 7.87102 10.5787 8.81643C10.9088 9.14201 11.1865 9.50578 11.4105 9.89699C11.4202 9.91564 11.4309 9.93352 11.4418 9.95139C11.8485 10.683 12.0656 11.5096 12.0656 12.371C12.0656 13.1611 11.8869 13.9157 11.5345 14.6146L7.07451 22.0926L2.61232 14.6144ZM5.04864 42.5995C4.77266 42.5995 4.54815 42.3751 4.54815 42.099V38.0949L7.24482 35.3983L14.4511 42.6047L5.04864 42.5995ZM17.1015 42.6059L14.223 39.7274L19.626 34.3245L27.9132 42.6118L17.1015 42.6059ZM24.6403 36.6899L29.4568 31.8733L32.9545 35.3709L28.1379 40.1875L24.6403 36.6899ZM30.5636 42.6133L29.4623 41.512L34.2789 36.6954L40.202 42.6185L30.5636 42.6133ZM45.4453 42.6213L42.8525 42.6199L35.6035 35.3709L37.7852 33.1892C38.1511 32.8234 38.1511 32.2304 37.7852 31.8646C37.4195 31.499 36.8265 31.499 36.4607 31.8646L34.2789 34.0464L30.1195 29.8871C30.1193 29.8869 30.1192 29.8868 30.1191 29.8866C30.1189 29.8864 30.1188 29.8863 30.1186 29.8861L27.1329 26.9003L30.6831 23.3502L32.5228 25.1898C32.726 25.3929 32.9923 25.4946 33.2586 25.4946C33.5249 25.4946 33.7913 25.3929 33.9944 25.1898C34.4008 24.7835 34.4008 24.1246 33.9944 23.718L32.1548 21.8784L43.561 10.4722L45.4455 10.4732C45.722 10.4735 45.9471 10.6985 45.9471 10.9746V16.8184C44.9855 16.3631 43.9251 16.1292 42.8264 16.1458C39.004 16.1988 35.8759 19.3523 35.8532 23.1757C35.8466 24.3087 36.1143 25.4371 36.6276 26.4393C36.6378 26.4591 41.1402 34.0065 41.1402 34.0065C41.5192 34.6416 42.187 35.0208 42.9266 35.0208C43.6662 35.0208 44.3339 34.6417 44.7128 34.0066L45.9472 31.9377V42.1198H45.9475C45.9472 42.3963 45.7217 42.6213 45.4453 42.6213ZM47.3875 25.4618L46.0742 27.6639C46.0738 27.6648 46.0731 27.6656 46.0727 27.6665L42.9275 32.94L38.4655 25.4617C38.1084 24.7536 37.9297 23.9888 37.9345 23.1879C37.9504 20.4896 40.158 18.264 42.8554 18.2266C44.2021 18.2083 45.4733 18.7183 46.4318 19.6638C47.3906 20.6094 47.9187 21.8718 47.9187 23.2183C47.9187 24.0085 47.74 24.7631 47.3875 25.4618Z" fill="black"/>
<path d="M42.9267 20.3254C41.3315 20.3254 40.0338 21.6232 40.0338 23.2184C40.0338 24.8135 41.3316 26.1114 42.9267 26.1114C44.5219 26.1114 45.8197 24.8135 45.8197 23.2184C45.8197 21.623 44.5219 20.3254 42.9267 20.3254ZM42.9267 24.03C42.4791 24.03 42.1149 23.666 42.1149 23.2182C42.1149 22.7705 42.479 22.4063 42.9267 22.4063C43.3745 22.4063 43.7385 22.7706 43.7385 23.2182C43.7385 23.6659 43.3744 24.03 42.9267 24.03Z" fill="black"/>
</g>
<defs>
<clipPath id="clip0">
<rect width="50" height="50" fill="white"/>
</clipPath>
</defs>
</svg>
